<?xml version="1.0" encoding="iso-8859-1"?>
<!-- Uploaded to: SVG Repo, www.svgrepo.com, Generator: SVG Repo Mixer Tools -->
<svg height="800px" width="800px" version="1.1" id="Layer_1" xmlns="http://www.w3.org/2000/svg" xmlns:xlink="http://www.w3.org/1999/xlink" 
	 viewBox="0 0 512 512" xml:space="preserve">
<path style="fill:#E6563A;" d="M406.261,478.609c-27.619,0-50.087-22.468-50.087-50.087v-50.087h-33.391
	c-5.478,0-10.608-2.685-13.717-7.185c-3.12-4.5-3.837-10.244-1.913-15.374l50.087-133.565c2.445-6.517,8.674-10.832,15.63-10.832
	h66.783c6.957,0,13.185,4.315,15.63,10.831l50.087,133.565c1.924,5.13,1.207,10.876-1.913,15.374
	c-3.109,4.501-8.239,7.186-13.717,7.186h-33.391v50.087C456.348,456.141,433.88,478.609,406.261,478.609z"/>
<path style="fill:#D9472B;" d="M455.283,222.309c-2.445-6.516-8.674-10.831-15.63-10.831h-33.391v267.13
	c27.619,0,50.087-22.468,50.087-50.087v-50.087h33.391c5.478,0,10.608-2.685,13.717-7.185c3.12-4.5,3.837-10.244,1.913-15.374
	L455.283,222.309z"/>
<path style="fill:#E6563A;" d="M406.261,178.087c-36.826,0-66.783-29.956-66.783-66.783s29.956-66.783,66.783-66.783
	s66.783,29.956,66.783,66.783S443.087,178.087,406.261,178.087z"/>
<path style="fill:#D9472B;" d="M473.043,111.304c0-36.826-29.956-66.783-66.783-66.783v133.565
	C443.087,178.087,473.043,148.13,473.043,111.304z"/>
<path style="fill:#736056;" d="M256,512c-9.217,0-16.696-7.473-16.696-16.696V16.696C239.304,7.473,246.783,0,256,0
	s16.696,7.473,16.696,16.696v478.609C272.696,504.527,265.217,512,256,512z"/>
<path style="fill:#665247;" d="M272.696,495.304V16.696C272.696,7.473,265.217,0,256,0v512
	C265.217,512,272.696,504.527,272.696,495.304z"/>
<path style="fill:#3AACE6;" d="M105.739,478.609c-27.619,0-50.087-22.468-50.087-50.087v-63.755L6.63,234.039
	c-1.924-5.13-1.207-10.876,1.913-15.374c3.109-4.501,8.239-7.186,13.717-7.186h166.957c5.478,0,10.608,2.685,13.717,7.185
	c3.12,4.5,3.837,10.244,1.913,15.374l-49.022,130.729v63.755C155.826,456.141,133.358,478.609,105.739,478.609z"/>
<path style="fill:#2B9FD9;" d="M155.826,428.522v-63.755l49.022-130.728c1.924-5.13,1.207-10.876-1.913-15.374
	c-3.109-4.501-8.239-7.186-13.717-7.186h-83.478v267.13C133.358,478.609,155.826,456.141,155.826,428.522z"/>
<path style="fill:#3AACE6;" d="M105.739,178.087c-36.826,0-66.783-29.956-66.783-66.783s29.956-66.783,66.783-66.783
	s66.783,29.956,66.783,66.783S142.565,178.087,105.739,178.087z"/>
<path style="fill:#2B9FD9;" d="M172.522,111.304c0-36.826-29.956-66.783-66.783-66.783v133.565
	C142.565,178.087,172.522,148.13,172.522,111.304z"/>
</svg>