<?xml version="1.0" encoding="iso-8859-1"?>
<!-- Uploaded to: SVG Repo, www.svgrepo.com, Generator: SVG Repo Mixer Tools -->
<svg height="800px" width="800px" version="1.1" id="Layer_1" xmlns="http://www.w3.org/2000/svg" xmlns:xlink="http://www.w3.org/1999/xlink" 
	 viewBox="0 0 512 512" xml:space="preserve">
<path style="fill:#5D9BEB;" d="M512,256.006C512,397.402,397.394,512.004,256.004,512C114.606,512.004,0,397.402,0,256.006
	C-0.007,114.61,114.606,0,256.004,0C397.394,0,512,114.614,512,256.006z"/>
<path style="fill:#4988DB;" d="M511.35,273.331L385.299,147.279c-1.543-1.543-3.633-2.412-5.821-2.412H131.554
	c-2.211,0-4.325,0.889-5.869,2.46l-56.659,57.625c-2.323,2.367-3.007,5.897-1.721,8.956c0.556,1.33,40.506,41.21,40.517,41.226
	v103.766c0,2.667,1.35,4.928,3.316,6.432c0.444,0.58,145.011,145.148,145.593,145.591c0.302,0.395,0.672,0.706,1.031,1.031
	C392.52,511.049,502.474,406.055,511.35,273.331z"/>
<path style="fill:#F4F6F9;" d="M442.923,204.903l-57.623-57.625c-1.543-1.543-3.634-2.412-5.821-2.412H131.554
	c-2.211,0-4.325,0.889-5.869,2.46L69.026,204.95c-2.323,2.368-3.007,5.897-1.721,8.956c1.278,3.059,4.269,5.049,7.589,5.049h32.928
	v139.943c0,4.546,3.682,8.231,8.231,8.231c4.55,0,8.231-3.686,8.231-8.231V218.956h32.928v74.089c0,4.546,3.682,8.231,8.231,8.231
	s8.231-3.686,8.231-8.231v-74.089h164.64v74.089c0,4.546,3.682,8.231,8.231,8.231c4.549,0,8.232-3.686,8.232-8.231v-74.089h32.928
	v139.943c0,4.546,3.682,8.231,8.231,8.231c4.55,0,8.231-3.686,8.231-8.231V218.956h32.928c3.328,0,6.335-2.005,7.605-5.081
	C445.986,210.797,445.278,207.259,442.923,204.903z M94.534,202.492l40.468-41.159H376.07l41.159,41.159H94.534z"/>
</svg>