<?xml version="1.0" encoding="utf-8"?>

<!DOCTYPE svg PUBLIC "-//W3C//DTD SVG 1.1//EN" "http://www.w3.org/Graphics/SVG/1.1/DTD/svg11.dtd">
<!-- Uploaded to: SVG Repo, www.svgrepo.com, Generator: SVG Repo Mixer Tools -->
<svg height="800px" width="800px" version="1.1" id="_x32_" xmlns="http://www.w3.org/2000/svg" xmlns:xlink="http://www.w3.org/1999/xlink" 
	 viewBox="0 0 512 512"  xml:space="preserve">
<style type="text/css">
	.st0{fill:#000000;}
</style>
<g>
	<path class="st0" d="M362.662,420.313c7.068,6.361,16.659,10.176,27.12,10.176c10.458,0,20.046-3.815,27.114-10.176
		c7.064-6.325,11.658-15.419,11.651-25.502c0.007-10.089-4.587-19.176-11.651-25.508c-7.068-6.353-16.659-10.161-27.114-10.161
		c-10.461,0-20.049,3.808-27.12,10.161c-7.064,6.333-11.654,15.419-11.648,25.508C351.008,404.894,355.598,413.988,362.662,420.313z
		 M373.037,380.828c4.158-3.75,10.075-6.188,16.746-6.188c6.672,0,12.585,2.438,16.739,6.188c4.165,3.771,6.517,8.64,6.52,13.983
		c-0.004,5.345-2.355,10.206-6.52,13.984c-4.154,3.75-10.071,6.195-16.739,6.195c-6.671,0-12.588-2.445-16.746-6.195
		c-4.165-3.779-6.513-8.64-6.519-13.984C366.524,389.468,368.872,384.599,373.037,380.828z"/>
	<path class="st0" d="M255.638,402.795c9.39,0,18.012-3.418,24.376-9.145c6.36-5.698,10.518-13.918,10.511-23.034
		c0.008-9.124-4.15-17.352-10.515-23.05c-6.364-5.726-14.986-9.138-24.372-9.138c-9.39,0-18.012,3.411-24.377,9.138
		c-6.36,5.698-10.518,13.926-10.511,23.05c-0.008,9.116,4.15,17.337,10.511,23.034C237.625,399.377,246.247,402.795,255.638,402.795
		z M241.632,359.091c3.458-3.115,8.402-5.164,14.006-5.164c5.604,0,10.547,2.048,14.006,5.164c3.454,3.144,5.372,7.14,5.38,11.525
		c-0.008,4.37-1.926,8.373-5.384,11.517c-3.454,3.116-8.402,5.164-14.002,5.164c-5.6,0-10.548-2.049-14.002-5.164
		c-3.462-3.144-5.376-7.146-5.384-11.517C236.259,366.231,238.173,362.235,241.632,359.091z"/>
	<path class="st0" d="M345.844,120.773c-7.8-3.159-16.89-4.904-26.62-4.904c-12.97,0.014-24.804,3.08-33.972,8.553
		c-4.576,2.747-8.514,6.13-11.434,10.262c-2.913,4.112-4.76,9.088-4.749,14.374c-0.01,5.286,1.836,10.262,4.746,14.374
		c4.399,6.188,11.002,10.746,18.784,13.926c7.806,3.159,16.898,4.912,26.626,4.912c12.971-0.022,24.81-3.087,33.976-8.561
		c4.573-2.755,8.514-6.144,11.435-10.277c2.91-4.111,4.756-9.087,4.745-14.374c0.011-5.286-1.835-10.262-4.749-14.374
		C360.232,128.504,353.629,123.954,345.844,120.773z M351.96,154.503c-2.041,2.949-6.188,6.173-11.939,8.488
		c-5.73,2.329-12.956,3.786-20.796,3.786c-10.45,0.015-19.811-2.618-25.995-6.361c-3.097-1.854-5.365-3.952-6.74-5.914
		c-1.377-1.99-1.907-3.7-1.918-5.445c0.01-1.745,0.537-3.455,1.918-5.438c2.038-2.95,6.184-6.166,11.94-8.474
		c5.73-2.336,12.956-3.779,20.795-3.779c10.451-0.021,19.819,2.611,26,6.339c3.094,1.86,5.365,3.952,6.736,5.914
		c1.381,1.983,1.908,3.692,1.914,5.438C353.868,150.803,353.338,152.513,351.96,154.503z"/>
	<path class="st0" d="M255.782,209.963c-5.903-2.769-12.754-4.291-20.056-4.299c-9.736,0.022-18.679,2.683-25.631,7.486
		c-3.469,2.402-6.451,5.38-8.626,8.95c-2.174,3.541-3.501,7.731-3.494,12.13c-0.007,4.392,1.316,8.59,3.49,12.138
		c3.282,5.344,8.308,9.36,14.197,12.137c5.906,2.762,12.758,4.292,20.064,4.292c9.736-0.015,18.675-2.683,25.628-7.479
		c3.469-2.416,6.452-5.387,8.629-8.95c2.174-3.548,3.494-7.746,3.49-12.138c0.004-4.399-1.32-8.59-3.494-12.13
		C266.7,216.749,261.674,212.725,255.782,209.963z M256.744,238.298c-1.273,2.128-3.851,4.457-7.54,6.181
		c-3.668,1.716-8.355,2.82-13.479,2.82c-6.833,0.007-12.888-1.983-16.793-4.724c-1.962-1.356-3.372-2.863-4.23-4.277
		c-0.862-1.436-1.219-2.712-1.226-4.068c0.007-1.356,0.364-2.632,1.226-4.068c1.273-2.12,3.851-4.45,7.54-6.173
		c3.671-1.724,8.359-2.827,13.483-2.82c6.83-0.014,12.888,1.984,16.789,4.717c1.962,1.356,3.372,2.856,4.23,4.277
		c0.862,1.436,1.215,2.712,1.222,4.068C257.959,235.587,257.606,236.863,256.744,238.298z"/>
	<path class="st0" d="M511.949,291.14c-2.517-29.461-8.546-55.676-17.085-79.007l-4.035-11.027l-11.565,1.976
		c-2.906,0.498-5.848,0.772-8.845,0.772c-10.447,0.029-19.671-3.086-25.505-7.248c-2.935-2.055-4.998-4.313-6.228-6.376
		c-1.237-2.084-1.716-3.887-1.727-5.784c0.022-2.597,0.916-5.192,3.527-8.243c2.578-2.993,6.924-6.058,12.57-8.164l17.583-6.606
		l-11.255-15.03c-25.22-33.702-56.332-56.39-85.608-72.314c-29.26-15.924-56.935-25.256-75.221-32.021
		c-7.583-2.806-14.839-4.068-21.491-4.06c-13.072-0.021-23.32,4.825-29.872,9.578c-4.936,3.57-8.03,7.053-9.548,8.964
		L119.927,170.384l4.991,9.376c1.741,3.282,2.643,6.664,2.65,10.27c-0.018,6.484-2.831,12.412-8.056,17.164
		c-5.211,4.702-12.722,7.839-21.272,7.832c-3.974,0-7.717-0.692-11.193-1.933l-8.24-2.942L0,286.366v137.582
		c0.007,27.65,22.4,50.036,50.047,50.043h45.407l-1.598-15.534c-0.091-0.88-0.134-1.601-0.134-2.206
		c0.018-7.003,3.065-13.4,8.661-18.492c5.586-5.034,13.616-8.38,22.739-8.373c9.116-0.007,17.146,3.339,22.732,8.373
		c5.596,5.091,8.644,11.488,8.661,18.492c0,0.548-0.043,1.312-0.14,2.329l-1.453,15.412h307.03
		c27.647-0.007,50.04-22.393,50.048-50.043V291.746L511.949,291.14z M86.399,242.02c3.826,0.75,7.778,1.19,11.842,1.19
		c15.43-0.008,29.63-5.625,40.131-15.073c10.493-9.39,17.398-23.006,17.38-38.108c0.004-4.602-0.696-9.037-1.882-13.262
		L258.966,75.129l0.688-0.988c0.329-0.419,2.2-2.604,5.15-4.45c3.007-1.868,6.844-3.476,12.261-3.497
		c3.17,0.007,6.991,0.569,11.723,2.315c18.841,6.937,44.688,15.736,71.516,30.333c22.862,12.447,46.222,29.057,66.361,52.019
		c-2.676,2.077-5.221,4.299-7.439,6.837c-6.26,7.118-10.476,16.509-10.454,26.75c-0.01,7.349,2.171,14.366,5.752,20.294
		c5.398,8.936,13.649,15.614,23.255,20.208c9.635,4.579,20.781,7.082,32.641,7.096c0.443,0,0.865-0.05,1.308-0.065
		c4.832,15.152,8.507,31.696,10.757,49.798H45.287L86.399,242.02z M483.816,423.948c-0.008,6.08-2.428,11.46-6.404,15.455
		c-3.995,3.981-9.376,6.397-15.459,6.404H183.586c-2.372-11.388-8.495-21.491-16.872-28.992
		c-10.876-9.787-25.592-15.606-41.592-15.614c-16.006,0.007-30.722,5.827-41.602,15.614c-8.376,7.501-14.492,17.604-16.868,28.992
		H50.047c-6.083-0.008-11.463-2.423-15.458-6.404c-3.978-3.995-6.397-9.375-6.404-15.455v-121.03h455.632V423.948z"/>
</g>
</svg>