<?xml version="1.0" encoding="iso-8859-1"?>
<!-- Uploaded to: SVG Repo, www.svgrepo.com, Generator: SVG Repo Mixer Tools -->
<svg height="800px" width="800px" version="1.1" id="Capa_1" xmlns="http://www.w3.org/2000/svg" xmlns:xlink="http://www.w3.org/1999/xlink" 
	 viewBox="0 0 434.59 434.59" xml:space="preserve">
<g>
	<g id="XMLID_11_">
		<g>
			<path d="M295.81,53.67c76.9,2.39,138.73,65.68,138.73,143.16c0,77.47-61.83,140.77-138.73,143.16v53.89
				c0,7.81-6.35,14.16-14.15,14.16h-1.02v14.5c0,6.64-5.4,12.05-12.05,12.05H27.27c-6.65,0-12.05-5.41-12.05-12.05v-14.5H14.2
				c-7.8,0-14.15-6.35-14.15-14.16V0h295.76V53.67z M425.54,196.83c0-72.51-57.79-131.77-129.73-134.15v33.28
				c53.59,2.36,96.47,46.7,96.47,100.87s-42.88,98.5-96.47,100.87v33.28C367.75,328.6,425.54,269.34,425.54,196.83z M383.28,196.83
				c0-49.21-38.84-89.51-87.47-91.86v183.72C344.44,286.33,383.28,246.03,383.28,196.83z M286.81,393.88V9H9.05v384.88
				c0,2.84,2.31,5.16,5.15,5.16h267.46C284.5,399.04,286.81,396.72,286.81,393.88z M271.64,422.54v-14.5H24.22v14.5
				c0,1.68,1.37,3.05,3.05,3.05h241.32C270.27,425.59,271.64,424.22,271.64,422.54z"/>
			<path style="fill:#60A57C;" d="M295.81,62.68c71.94,2.38,129.73,61.64,129.73,134.15S367.75,328.6,295.81,330.98V297.7
				c53.59-2.37,96.47-46.7,96.47-100.87S349.4,98.32,295.81,95.96V62.68z"/>
			<path style="fill:#6BCE95;" d="M286.81,9v384.88c0,2.84-2.31,5.16-5.15,5.16H14.2c-2.84,0-5.15-2.32-5.15-5.16V9H286.81z
				 M267.74,315.54V94.78c0-2.49-2.02-4.5-4.5-4.5c-2.49,0-4.5,2.01-4.5,4.5v220.76c0,2.48,2.01,4.5,4.5,4.5
				C265.72,320.04,267.74,318.02,267.74,315.54z M267.74,69.74V42.43c0-2.48-2.02-4.5-4.5-4.5c-2.49,0-4.5,2.02-4.5,4.5v27.31
				c0,2.49,2.01,4.5,4.5,4.5C265.72,74.24,267.74,72.23,267.74,69.74z"/>
			<path style="fill:#60A57C;" d="M271.64,408.04v14.5c0,1.68-1.37,3.05-3.05,3.05H27.27c-1.68,0-3.05-1.37-3.05-3.05v-14.5H271.64z
				"/>
			<path style="fill:#FFFFFF;" d="M267.74,94.78v220.76c0,2.48-2.02,4.5-4.5,4.5c-2.49,0-4.5-2.02-4.5-4.5V94.78
				c0-2.49,2.01-4.5,4.5-4.5C265.72,90.28,267.74,92.29,267.74,94.78z"/>
			<path style="fill:#FFFFFF;" d="M267.74,42.43v27.31c0,2.49-2.02,4.5-4.5,4.5c-2.49,0-4.5-2.01-4.5-4.5V42.43
				c0-2.48,2.01-4.5,4.5-4.5C265.72,37.93,267.74,39.95,267.74,42.43z"/>
		</g>
	</g>
</g>
</svg>