<?xml version="1.0" encoding="iso-8859-1"?>

<!DOCTYPE svg PUBLIC "-//W3C//DTD SVG 1.1//EN" "http://www.w3.org/Graphics/SVG/1.1/DTD/svg11.dtd">
<!-- Uploaded to: SVG Repo, www.svgrepo.com, Generator: SVG Repo Mixer Tools -->
<svg version="1.1" id="_x34_" xmlns="http://www.w3.org/2000/svg" xmlns:xlink="http://www.w3.org/1999/xlink" 
	 viewBox="0 0 512 512"  xml:space="preserve">
<g>
	<g>
		<path style="fill:#7F7F7F;" d="M75.14,199.931c0,9.175-7.425,16.603-16.6,16.603H16.6c-9.175,0-16.6-7.428-16.6-16.603l0,0
			c0-9.176,7.425-16.598,16.6-16.598H58.54C67.715,183.333,75.14,190.755,75.14,199.931L75.14,199.931z"/>
		<path style="fill:#7F7F7F;" d="M512,199.931c0,9.175-7.435,16.603-16.604,16.603h-41.939c-9.168,0-16.604-7.428-16.604-16.603l0,0
			c0-9.176,7.435-16.598,16.604-16.598h41.939C504.565,183.333,512,190.755,512,199.931L512,199.931z"/>
	</g>
	<path style="fill:#E3E2E2;" d="M456.41,136.148v186.345c0,38.722-31.307,69.901-69.894,69.901h-261
		c-38.582,0-69.895-31.178-69.895-69.901V136.148c0-38.581,31.313-69.895,69.895-69.895h261
		C425.104,66.254,456.41,97.567,456.41,136.148z"/>
	<rect x="55.621" y="147.75" style="fill:#CECECF;" width="400.789" height="37.323"/>
	<path style="fill:#75A6C2;" d="M475.017,152.476c0,10.285-8.346,18.633-18.645,18.633H55.634c-10.312,0-18.648-8.347-18.648-18.633
		l0,0c0-10.312,8.337-18.652,18.648-18.652h400.738C466.671,133.824,475.017,142.164,475.017,152.476L475.017,152.476z"/>
	<g>
		<path style="fill:#7F7F7F;" d="M312.795,64.501c0,4.835-3.917,8.738-8.745,8.738h-96.103c-4.815,0-8.745-3.903-8.745-8.738l0,0
			c0-4.834,3.93-8.732,8.745-8.732h96.103C308.878,55.769,312.795,59.667,312.795,64.501L312.795,64.501z"/>
		<rect x="238.804" y="25.182" style="fill:#727272;" width="34.401" height="34.954"/>
		<path style="fill:#7F7F7F;" d="M304.371,22.645c0,12.495-10.157,22.639-22.639,22.639h-51.429
			c-12.507,0-22.678-10.145-22.678-22.639l0,0C207.626,10.144,217.796,0,230.303,0h51.429C294.214,0,304.371,10.144,304.371,22.645
			L304.371,22.645z"/>
	</g>
	<path style="opacity:0.1;fill:#565657;" d="M495.396,183.333H456.41v-12.237c10.299-0.012,18.607-8.347,18.607-18.619
		c0-10.312-8.346-18.652-18.645-18.652h-0.193c-1.258-37.483-31.859-67.571-69.663-67.571h-74.081c0.128-0.59,0.36-1.124,0.36-1.753
		c0-4.834-3.917-8.732-8.745-8.732h-30.844V45.284h8.527c12.481,0,22.639-10.145,22.639-22.639C304.371,10.144,294.214,0,281.732,0
		h-27.609v392.394h132.393c38.587,0,69.894-31.178,69.894-69.901v-105.96h38.986c9.168,0,16.604-7.428,16.604-16.603
		C512,190.755,504.565,183.333,495.396,183.333z"/>
</g>
</svg>