<?xml version="1.0" ?>
<!DOCTYPE svg  PUBLIC '-//W3C//DTD SVG 1.1//EN'  'http://www.w3.org/Graphics/SVG/1.1/DTD/svg11.dtd'>
<!-- Uploaded to: SVG Repo, www.svgrepo.com, Generator: SVG Repo Mixer Tools -->
<svg fill="#000000" width="800px" height="800px" viewBox="-0.5 0 129 129" style="fill-rule:evenodd;clip-rule:evenodd;stroke-linejoin:round;stroke-miterlimit:2;" version="1.1" xml:space="preserve" xmlns="http://www.w3.org/2000/svg" xmlns:serif="http://www.serif.com/" xmlns:xlink="http://www.w3.org/1999/xlink">
<g transform="matrix(1,0,0,1,0,-169)">
<g id="saw" transform="matrix(1,0,0,1,0,169.583)">
<rect height="128" style="fill:none;" width="128" x="0" y="0"/>
<g>
<g transform="matrix(1,0,0,1,-2188.01,-2791.25)">
<path d="M2281.28,2854.16L2268.22,2820.78C2268.22,2820.78 2207.17,2881.83 2193.19,2895.81C2191.63,2897.37 2191.63,2899.9 2193.19,2901.47C2196.52,2904.79 2201.58,2909.85 2201.58,2909.85L2205.38,2904.73L2210.38,2903.71L2212.46,2899.78L2217.45,2898.77L2219.53,2894.84L2224.52,2893.83L2226.6,2889.9L2231.59,2888.88L2233.68,2884.96L2238.67,2883.94L2240.75,2880.01L2245.74,2879L2247.82,2875.07L2252.81,2874.05L2254.89,2870.13L2259.89,2869.11L2261.97,2865.19L2266.96,2864.17L2269.04,2860.24L2274.03,2859.23L2281.28,2854.16ZM2204.8,2890.91C2201.97,2890.91 2199.67,2893.2 2199.67,2896.03C2199.67,2898.87 2201.97,2901.16 2204.8,2901.16C2207.63,2901.16 2209.93,2898.87 2209.93,2896.03C2209.93,2893.2 2207.63,2890.91 2204.8,2890.91Z" style="fill:rgb(158,158,158);"/>
</g>
<g transform="matrix(1,0,0,1,-2188.01,-2791.25)">
<path d="M2265.92,2823.08L2276.02,2848.91L2268.77,2853.97L2263.78,2854.99L2261.7,2858.91L2256.71,2859.93L2254.63,2863.86L2249.64,2864.87L2247.56,2868.8L2242.57,2869.82L2240.48,2873.74L2235.49,2874.76L2233.41,2878.68L2228.42,2879.7L2226.34,2883.63L2221.35,2884.64L2219.26,2888.57L2214.27,2889.59L2212.19,2893.51L2209.53,2894.05C2209.79,2894.66 2209.93,2895.33 2209.93,2896.03C2209.93,2898.87 2207.63,2901.16 2204.8,2901.16C2203.22,2901.16 2201.8,2900.45 2200.86,2899.32L2200.13,2899.47L2196.33,2904.6L2201.58,2909.85L2205.38,2904.73L2210.38,2903.71L2212.46,2899.78L2217.45,2898.77L2219.53,2894.84L2224.52,2893.83L2226.6,2889.9L2231.59,2888.88L2233.68,2884.96L2238.67,2883.94L2240.75,2880.01L2245.74,2879L2247.82,2875.07L2252.81,2874.05L2254.89,2870.13L2259.89,2869.11L2261.97,2865.19L2266.96,2864.17L2269.04,2860.24L2274.03,2859.23L2281.28,2854.16L2268.22,2820.78L2265.92,2823.08Z" style="fill:rgb(118,118,118);"/>
</g>
<g transform="matrix(1,0,0,1,-2188.01,-2791.25)">
<path d="M2270.89,2827.6L2268.22,2820.78C2268.22,2820.78 2207.17,2881.83 2193.19,2895.81C2191.63,2897.37 2191.63,2899.9 2193.19,2901.47L2197.94,2906.21C2196.38,2904.65 2196.38,2902.11 2197.94,2900.55L2200.2,2898.29C2199.86,2897.61 2199.67,2896.85 2199.67,2896.03C2199.67,2893.2 2201.97,2890.91 2204.8,2890.91C2205.61,2890.91 2206.38,2891.09 2207.06,2891.43L2270.89,2827.6Z" style="fill:rgb(182,182,182);"/>
</g>
<g transform="matrix(1,0,0,1,-2188.01,-2791.25)">
<path d="M2311.97,2833.54C2312.4,2833.22 2312.68,2832.73 2312.76,2832.2C2312.83,2831.67 2312.68,2831.13 2312.35,2830.7C2311.39,2829.48 2310.1,2827.83 2309.24,2826.72C2308.68,2826.01 2307.71,2825.76 2306.87,2826.12C2305.82,2826.57 2304.38,2827.18 2303.34,2827.63C2302.53,2827.98 2301.59,2827.75 2301.02,2827.08C2298.83,2824.47 2293.47,2818.08 2291.2,2815.37C2290.59,2814.65 2290.58,2813.6 2291.16,2812.86C2291.93,2811.86 2293.01,2810.48 2293.78,2809.5C2294.34,2808.78 2294.34,2807.77 2293.78,2807.05C2292.77,2805.74 2291.16,2803.66 2290.01,2802.18C2289.66,2801.72 2289.13,2801.44 2288.56,2801.4C2287.99,2801.37 2287.42,2801.58 2287.02,2801.99C2282.59,2806.41 2270.22,2818.78 2265.59,2823.41C2264.5,2824.5 2264.14,2826.12 2264.65,2827.57C2265.88,2831.05 2268.14,2837.48 2269.32,2840.84C2269.79,2842.17 2270.94,2843.16 2272.33,2843.43C2278.14,2844.57 2293.27,2847.54 2293.27,2847.54C2293.27,2847.54 2307.14,2837.15 2311.97,2833.54ZM2297.9,2834.68L2282.3,2817.06C2282.3,2817.06 2278.69,2821.44 2277.03,2823.45C2276.54,2824.05 2276.44,2824.89 2276.77,2825.59C2278.14,2828.44 2281.58,2835.6 2281.58,2835.6C2281.58,2835.6 2289.35,2837.33 2291.95,2837.91C2292.49,2838.03 2293.04,2837.92 2293.5,2837.62C2294.9,2836.68 2297.9,2834.68 2297.9,2834.68Z" style="fill:rgb(244,49,49);"/>
</g>
<g transform="matrix(1,0,0,1,-2188.01,-2791.25)">
<path d="M2308.08,2826L2309.64,2828C2309.97,2828.42 2310.12,2828.96 2310.05,2829.49C2309.98,2830.03 2309.7,2830.51 2309.26,2830.83C2304.43,2834.45 2290.56,2844.83 2290.56,2844.83C2290.56,2844.83 2275.44,2841.86 2269.62,2840.72C2269.49,2840.7 2269.37,2840.67 2269.25,2840.63L2269.32,2840.84C2269.79,2842.17 2270.94,2843.16 2272.33,2843.43C2278.14,2844.57 2293.27,2847.54 2293.27,2847.54C2293.27,2847.54 2307.14,2837.15 2311.97,2833.54C2312.4,2833.22 2312.68,2832.73 2312.76,2832.2C2312.83,2831.67 2312.68,2831.13 2312.35,2830.7C2311.39,2829.48 2310.1,2827.83 2309.24,2826.72C2308.94,2826.35 2308.53,2826.1 2308.08,2826ZM2282.16,2817.24L2279.6,2814.36C2279.6,2814.36 2275.98,2818.74 2274.33,2820.74C2273.83,2821.35 2273.73,2822.18 2274.07,2822.88C2275.43,2825.74 2280.45,2833.24 2280.45,2833.24L2276.77,2825.59C2276.44,2824.89 2276.54,2824.05 2277.03,2823.45L2282.16,2817.24ZM2288.83,2801.44L2291.07,2804.34C2291.63,2805.06 2291.63,2806.07 2291.07,2806.79C2290.3,2807.78 2289.23,2809.15 2288.45,2810.15C2287.87,2810.89 2287.89,2811.94 2288.49,2812.66C2290.76,2815.37 2296.13,2821.76 2298.31,2824.37C2298.57,2824.68 2298.91,2824.89 2299.28,2825L2291.2,2815.37C2290.59,2814.65 2290.58,2813.6 2291.16,2812.86C2291.93,2811.86 2293.01,2810.48 2293.78,2809.5C2294.34,2808.78 2294.34,2807.77 2293.78,2807.05C2292.77,2805.74 2291.16,2803.66 2290.01,2802.18C2289.72,2801.79 2289.3,2801.53 2288.83,2801.44Z" style="fill:rgb(183,37,37);"/>
</g>
<g transform="matrix(1,0,0,1,-2188.01,-2791.25)">
<path d="M2272.31,2843.43L2267.85,2830.77C2267.34,2829.32 2267.71,2827.7 2268.8,2826.62C2273.43,2821.98 2285.79,2809.62 2290.22,2805.19C2290.63,2804.78 2291.19,2804.57 2291.76,2804.61C2291.81,2804.61 2291.86,2804.62 2291.91,2804.62L2290.01,2802.18C2289.66,2801.72 2289.13,2801.44 2288.56,2801.4C2287.99,2801.37 2287.42,2801.58 2287.02,2801.99C2282.59,2806.41 2270.22,2818.78 2265.59,2823.41C2264.5,2824.5 2264.14,2826.12 2264.65,2827.57C2265.88,2831.05 2268.14,2837.48 2269.32,2840.84C2269.79,2842.17 2270.93,2843.15 2272.31,2843.43Z" style="fill:rgb(247,101,101);"/>
</g>
</g>
</g>
</g>
</svg>