<?xml version="1.0" encoding="iso-8859-1"?>
<!-- Uploaded to: SVG Repo, www.svgrepo.com, Generator: SVG Repo Mixer Tools -->
<svg fill="#000000" height="800px" width="800px" version="1.1" id="Layer_1" xmlns="http://www.w3.org/2000/svg" xmlns:xlink="http://www.w3.org/1999/xlink" 
	 viewBox="0 0 309.88 309.88" xml:space="preserve">
<g>
	<g>
		<g>
			<path d="M148.524,172.191h-28.24c-1.724,0-3.12,1.396-3.12,3.12s1.396,3.12,3.12,3.12h28.24c1.724,0,3.12-1.396,3.12-3.12
				S150.248,172.191,148.524,172.191z"/>
			<path d="M297.96,154.391h-14.868V51.343c0-0.164-0.02-0.324-0.056-0.488c-3.92-17.068-19.324-29.184-36.844-28.648
				c-16.44,0.444-30.72,12.14-34.66,28.056H196.2c-3.632,0-6.584,2.952-6.584,6.584c0,3.632,2.952,6.584,6.584,6.584h35.204
				c3.632,0,6.584-2.952,6.584-6.584c0-3.632-2.952-6.584-6.584-6.584H216.14c3.84-13.472,16.056-23.304,30.172-23.688
				c0.292-0.008,0.58-0.016,0.868-0.016c14.924,0,28.072,10.392,31.544,25.032v102.796h-171.02v-3.296
				c0-1.208-0.976-2.184-2.18-2.184H47.86c-1.208,0-2.184,0.976-2.184,2.184v3.296H11.92c-6.568,0-11.92,5.352-11.92,11.92
				c0,6.004,4.484,10.94,10.268,11.756v31.336c0,29.412,18.524,51.756,47.192,59.88l-13.088,13.088
				c-1.224,1.216-1.224,3.192,0,4.408c0.608,0.612,1.404,0.916,2.204,0.916s1.592-0.304,2.204-0.916l15.404-15.4
				c0.128-0.128,0.188-0.292,0.288-0.436c5.652,1.084,11.596,1.716,17.86,1.716h145.22c6.136,0,11.968-0.604,17.52-1.648l10.2,14.28
				c0.604,0.852,1.564,1.308,2.536,1.308c0.628,0,1.26-0.188,1.808-0.584c1.4-0.996,1.724-2.948,0.724-4.348l-8.684-12.152
				c29.108-7.94,47.956-30.432,47.956-60.108v-31.34c5.784-0.812,10.268-5.748,10.268-11.752
				C309.88,159.743,304.532,154.391,297.96,154.391z M231.4,54.627c1.224,0,2.22,0.996,2.22,2.22s-0.996,2.216-2.22,2.216h-35.204
				c-1.224,0-2.22-0.992-2.22-2.216s0.996-2.22,2.22-2.22H231.4z M50.044,214.151h19.96c1.208,0,2.184-0.976,2.184-2.184
				c0-1.208-0.976-2.184-2.184-2.184h-19.96v-2.676h35.972c1.208,0,2.184-0.976,2.184-2.184c0-1.208-0.976-2.184-2.184-2.184H50.044
				v-26.428c0.108-0.32,0.2-0.648,0.2-1c0-0.032-0.02-0.064-0.02-0.1c0-0.032,0.02-0.064,0.02-0.1c0-0.356-0.092-0.684-0.2-1v-15.62
				c0.104-0.312,0.196-0.632,0.196-0.98c0-0.348-0.092-0.668-0.196-0.976v-3.256h53.296v49.46H91.672
				c-1.208,0-2.184,0.976-2.184,2.184s0.976,2.184,2.184,2.184h11.668v2.676H79.124c-1.208,0-2.184,0.976-2.184,2.184
				c0,1.208,0.976,2.184,2.184,2.184h24.216v6.636H50.044V214.151z M6.24,166.311c0-3.132,2.548-5.68,5.68-5.68h33.756v11.364H11.92
				C8.788,171.991,6.24,169.443,6.24,166.311z M297.96,171.991c-0.432,0-0.844,0.088-1.216,0.248
				c-0.088-0.008-0.16-0.052-0.248-0.052H166.128c-1.724,0-3.12,1.396-3.12,3.12s1.396,3.12,3.12,3.12h127.248v30.972
				c0,33.572-27.068,57.016-65.824,57.016H82.332c-38.76,0-65.824-23.444-65.824-57.016v-30.972H45.68v44.54
				c0,1.204,0.976,2.184,2.184,2.184h57.664c1.204,0,2.18-0.976,2.18-2.184v-17.084c0.148-0.292,0.248-0.612,0.248-0.96
				c0-0.348-0.1-0.668-0.248-0.96v-43.332H297.96c3.132,0,5.684,2.548,5.684,5.68C303.64,169.443,301.092,171.991,297.96,171.991z"
				/>
			<path d="M231.384,258.287c3.608-0.148,7.152-0.704,10.632-1.676c2.724-0.764,1.564-5.012-1.168-4.24
				c-3.112,0.872-6.232,1.388-9.46,1.52C228.56,254.003,228.548,258.403,231.384,258.287z"/>
			<path d="M251.228,252.703c11.124-6.78,18.152-18.136,17.024-31.392c-0.236-2.8-4.64-2.824-4.4,0
				c1.004,11.78-4.924,21.548-14.844,27.592C246.596,250.379,248.8,254.183,251.228,252.703z"/>
			<path d="M196.836,144.859c0,0.86,0.7,1.56,1.56,1.56s1.56-0.7,1.56-1.56v-13.256c0-0.86-0.7-1.56-1.56-1.56s-1.56,0.7-1.56,1.56
				V144.859z"/>
			<path d="M196.836,119.131c0,0.86,0.7,1.56,1.56,1.56s1.56-0.7,1.56-1.56V94.203c0-0.86-0.7-1.56-1.56-1.56s-1.56,0.7-1.56,1.56
				V119.131z"/>
			<path d="M198.396,88.339c0.86,0,1.56-0.7,1.56-1.56V71.127c0-0.856-0.7-1.56-1.56-1.56s-1.56,0.704-1.56,1.56v15.652
				C196.836,87.639,197.536,88.339,198.396,88.339z"/>
			<path d="M209.536,84.367c0.86,0,1.56-0.7,1.56-1.56V70.599c0-0.86-0.7-1.56-1.56-1.56s-1.56,0.7-1.56,1.56v12.208
				C207.976,83.667,208.676,84.367,209.536,84.367z"/>
			<path d="M207.976,100.267c0,0.86,0.7,1.56,1.56,1.56s1.56-0.7,1.56-1.56V90.043c0-0.86-0.7-1.56-1.56-1.56s-1.56,0.7-1.56,1.56
				V100.267z"/>
			<path d="M207.976,138.491c0,0.86,0.7,1.56,1.56,1.56s1.56-0.7,1.56-1.56v-27.144c0-0.856-0.7-1.56-1.56-1.56
				s-1.56,0.704-1.56,1.56V138.491z"/>
			<path d="M220.176,144.859c0,0.86,0.7,1.56,1.56,1.56s1.56-0.7,1.56-1.56v-13.256c0-0.86-0.7-1.56-1.56-1.56s-1.56,0.7-1.56,1.56
				V144.859z"/>
			<path d="M220.176,119.131c0,0.86,0.7,1.56,1.56,1.56s1.56-0.7,1.56-1.56V94.203c0-0.86-0.7-1.56-1.56-1.56s-1.56,0.7-1.56,1.56
				V119.131z"/>
			<path d="M221.736,88.339c0.86,0,1.56-0.7,1.56-1.56V71.127c0-0.856-0.7-1.56-1.56-1.56s-1.56,0.704-1.56,1.56v15.652
				C220.176,87.639,220.876,88.339,221.736,88.339z"/>
			<path d="M234.436,82.807V70.599c0-0.86-0.7-1.56-1.56-1.56s-1.56,0.7-1.56,1.56v12.208c-0.004,0.86,0.696,1.56,1.56,1.56
				C233.736,84.367,234.436,83.667,234.436,82.807z"/>
			<path d="M231.316,100.267c0,0.86,0.7,1.56,1.56,1.56s1.56-0.7,1.56-1.56V90.043c0-0.86-0.7-1.56-1.56-1.56s-1.56,0.7-1.56,1.56
				V100.267z"/>
			<path d="M231.316,138.491c0,0.86,0.7,1.56,1.56,1.56s1.56-0.7,1.56-1.56v-27.144c0-0.856-0.7-1.56-1.56-1.56
				s-1.56,0.704-1.56,1.56V138.491z"/>
		</g>
	</g>
</g>
</svg>