<?xml version="1.0" encoding="iso-8859-1"?>
<!-- Uploaded to: SVG Repo, www.svgrepo.com, Generator: SVG Repo Mixer Tools -->
<svg height="800px" width="800px" version="1.1" id="Layer_1" xmlns="http://www.w3.org/2000/svg" xmlns:xlink="http://www.w3.org/1999/xlink" 
	 viewBox="0 0 496.2 496.2" xml:space="preserve">
<path style="fill:#FABC3D;" d="M496.2,248.1C496.2,111.1,385.1,0,248.1,0S0,111.1,0,248.1s111.1,248.1,248.1,248.1
	S496.2,385.1,496.2,248.1z"/>
<path style="fill:#3A3536;" d="M321.3,222.2l40.5-54.3c0,0,54.3-30,44.6-53L346.2,161l-42.3,47.4L321.3,222.2z"/>
<path style="fill:#514D4E;" d="M280.9,198.8c0,0,43.2-39.6,55.2-49.7s40.4-30.8,48.8-35.9c12.9-7.8,27.1,0.5,19.8,6.9
	c-7.4,6.4-32.2,21.6-46.5,36.3s-46,56.1-46,56.1L280.9,198.8z"/>
<path style="fill:#C9C7C7;" d="M280.9,198.8c0,0,3-2.8,7.7-7l29.2,13.6c-3.4,4.4-5.6,7.2-5.6,7.2L280.9,198.8z"/>
<path style="fill:#ADACAC;" d="M324.1,221.8l-6.4-16.4c-3.4,4.4-5.6,7.2-5.6,7.2S319.4,226,324.1,221.8z"/>
<g>
	<path style="fill:#3A3536;" d="M90.7,271.2c0-45.7,57.5-82.8,128.5-82.8s128.5,37.1,128.5,82.8S290.2,354,219.2,354
		C148.2,354,90.7,316.9,90.7,271.2z"/>
	<path style="fill:#3A3536;" d="M219.2,354c69.4,0,125.9-35.4,128.4-79.8c0-1.2,0-2,0-2.2c-3-44-59.3-41.3-128.3-41.3
		c-68.6,0-124.6-3.1-128.3,40.5c0,0.3,0,1.6-0.1,3.6C93.8,318.9,150.1,354,219.2,354z"/>
</g>
<ellipse style="fill:#666465;" cx="219.2" cy="300.6" rx="118.4" ry="73.5"/>
<path style="fill:#B2162D;" d="M219.2,354c-69.1,0-125.4-35.1-128.3-79.1c-0.1,10.1-0.1,20.9-0.1,22.1c0,45.7,57.5,89.2,128.5,89.2
	s128.5-43.5,128.5-89.2c0-1.1,0-14.3-0.1-22.7C345.1,318.5,288.6,354,219.2,354z"/>
<path style="fill:#E2E0E0;" d="M219.2,356c-72,0-130.5-38.1-130.5-84.9s58.6-84.9,130.5-84.9c72,0,130.5,38.1,130.5,84.9
	C349.7,318,291.2,356,219.2,356z M219.2,190.5c-69.7,0-126.4,36.2-126.4,80.7s56.7,80.7,126.4,80.7s126.4-36.2,126.4-80.7
	S288.9,190.5,219.2,190.5z"/>
<ellipse transform="matrix(0.8778 -0.479 0.479 0.8778 -9.2245 202.36)" style="fill:#3A3536;" cx="392.036" cy="119.261" rx="7.8" ry="4.9"/>
</svg>