<?xml version="1.0" encoding="iso-8859-1"?>

<!DOCTYPE svg PUBLIC "-//W3C//DTD SVG 1.1//EN" "http://www.w3.org/Graphics/SVG/1.1/DTD/svg11.dtd">
<!-- Uploaded to: SVG Repo, www.svgrepo.com, Generator: SVG Repo Mixer Tools -->
<svg height="800px" width="800px" version="1.1" id="_x34_" xmlns="http://www.w3.org/2000/svg" xmlns:xlink="http://www.w3.org/1999/xlink" 
	 viewBox="0 0 512 512"  xml:space="preserve">
<g>
	<g>
		<path style="fill:#C5B999;" d="M237.332,369.724c0,4.7,8.359,8.104,18.677,8.104c10.315,0,18.677-3.404,18.677-8.104v134.168
			c0,4.7-8.362,8.107-18.677,8.107c-10.318,0-18.677-3.408-18.677-8.107V369.724z"/>
		<path style="fill:#C39C61;" d="M274.686,369.724c0,4.7-8.362,8.104-18.677,8.104c-10.318,0-18.677-3.404-18.677-8.104
			c0-4.7,8.359-8.107,18.677-8.107C266.323,361.617,274.686,365.025,274.686,369.724z"/>
		<polygon style="fill:#84BBD0;" points="472.027,318.463 256.009,481.61 39.991,318.463 		"/>
		<path style="fill:#DB4E4C;" d="M496.17,165.923v108.226c0,26.424-20.521,49.686-54.745,67.396c-0.07,0.07-0.07,0.07-0.07,0.07
			c-40.339,20.942-99.652,34.365-166.696,36.403c-6.114,0.281-12.368,0.351-18.623,0.351c-6.325,0-12.509-0.07-18.694-0.351
			c-67.184-2.038-126.638-15.461-166.907-36.544c-4.708-2.389-9.066-4.919-13.212-7.59c-16.304-10.33-28.392-22.207-35.138-35.138
			c-4.076-7.801-6.254-16.023-6.254-24.597V165.923H496.17z"/>
		<path style="fill:#7EBB7D;" d="M496.17,158.333c0,2.6-0.211,5.13-0.562,7.59c-8.644,56.502-112.583,96.63-239.573,96.63
			c-127.06,0-230.999-40.128-239.644-96.63c-0.351-2.46-0.562-4.99-0.562-7.59c0-57.557,97.544-100.003,221.512-103.869
			c6.184-0.281,12.369-0.351,18.694-0.351c6.255,0,12.509,0.07,18.623,0.351c72.947,2.249,136.688,17.851,176.887,42.096
			c19.045,11.455,32.749,24.807,39.636,39.636C494.413,143.294,496.17,150.673,496.17,158.333z"/>
		<path style="fill:#F4E829;" d="M400.124,152.298c0,36.267-64.525,62.537-144.115,62.537c-79.593,0-144.115-26.27-144.115-62.537
			c0-36.266,64.522-62.543,144.115-62.543C335.598,89.754,400.124,116.031,400.124,152.298z"/>
		<path style="fill:#C5B999;" d="M274.658,8.082V142.31c0,4.639-8.363,8.082-18.623,8.082c-10.331,0-18.694-3.443-18.694-8.082
			V8.082c0,4.708,8.363,8.152,18.694,8.152C266.295,16.234,274.658,12.79,274.658,8.082z"/>
		<path style="fill:#E8DDC7;" d="M274.658,8.082c0,4.708-8.363,8.152-18.623,8.152c-10.331,0-18.694-3.444-18.694-8.152
			c0-4.708,8.363-8.082,18.694-8.082C266.295,0,274.658,3.374,274.658,8.082z"/>
	</g>
	<path style="opacity:0.06;fill:#040000;" d="M496.17,158.333c0-7.66-1.757-15.039-4.99-22.137
		c-6.887-14.828-20.591-28.181-39.636-39.636c-40.199-24.245-103.94-39.847-176.887-42.096V8.082c0-4.708-8.363-8.082-18.623-8.082
		c-0.012,0-0.023,0.001-0.035,0.001V512c0.003,0,0.006,0,0.009,0c10.315,0,18.677-3.408,18.677-8.107v-36.389l166.882-126.036
		c34.138-17.7,54.603-40.932,54.603-67.318V165.923h-0.562C495.96,163.464,496.17,160.934,496.17,158.333z"/>
</g>
</svg>