<?xml version="1.0" encoding="iso-8859-1"?>
<!-- Uploaded to: SVG Repo, www.svgrepo.com, Generator: SVG Repo Mixer Tools -->
<svg height="800px" width="800px" version="1.1" id="Layer_1" xmlns="http://www.w3.org/2000/svg" xmlns:xlink="http://www.w3.org/1999/xlink" 
	 viewBox="0 0 511.999 511.999" xml:space="preserve">
<path style="fill:#C7CFE2;" d="M340.163,42.222H171.837c-5.96,0-11.382,3.17-14.59,8.193c-8.926,13.975-20.963,26.011-20.963,26.011
	v393.352c0,0,12.037,12.037,20.963,26.011c3.209,5.023,8.63,8.193,14.59,8.193h168.326c5.96,0,11.382-3.17,14.59-8.193
	c8.926-13.975,20.963-26.011,20.963-26.011V76.426c0,0-12.037-12.037-20.963-26.011C351.545,45.391,346.123,42.222,340.163,42.222z"
	/>
<path style="fill:#AFB9D2;" d="M253.122,495.79c-6.057-13.975-14.225-26.011-14.225-26.011V76.426c0,0,8.167-12.037,14.225-26.011
	c2.177-5.023,5.856-8.193,9.9-8.193h-91.186c-5.96,0-11.382,3.169-14.589,8.193c-8.926,13.975-20.963,26.011-20.963,26.011v393.352
	c0,0,12.037,12.037,20.963,26.011c3.208,5.023,8.629,8.193,14.589,8.193h91.186C258.979,503.983,255.3,500.812,253.122,495.79z"/>
<path style="fill:#FFDC64;" d="M375.715,469.778H136.284c-4.722,0-8.551-3.829-8.551-8.551V84.977c0-4.722,3.829-8.551,8.551-8.551
	h239.432c4.722,0,8.551,3.829,8.551,8.551v376.25C384.267,465.949,380.439,469.778,375.715,469.778z"/>
<path style="fill:#FFC850;" d="M230.346,461.227V84.977c0-4.722,3.829-8.551,8.551-8.551H136.284c-4.722,0-8.551,3.829-8.551,8.551
	v376.25c0,4.722,3.829,8.551,8.551,8.551h102.614C234.175,469.778,230.346,465.949,230.346,461.227z"/>
<path d="M336.891,245.682c-4.309,1.018-6.977,5.336-5.959,9.645c1.367,5.787,2.06,11.767,2.06,17.775
	c0,26.319-13.11,49.895-33.852,63.848l0.976-1.368c2.571-3.605,1.733-8.611-1.872-11.182s-8.611-1.733-11.182,1.872l-17.91,25.113
	c-1.604,2.25-1.938,5.169-0.88,7.723c1.058,2.554,3.356,4.382,6.082,4.839l30.421,5.095c0.448,0.075,0.894,0.111,1.334,0.111
	c3.846,0,7.241-2.775,7.897-6.693c0.731-4.366-2.216-8.5-6.582-9.231l-3.306-0.554c9.303-5.631,17.644-12.873,24.509-21.439
	c13.154-16.414,20.398-37.06,20.398-58.134c0-7.247-0.838-14.469-2.489-21.461C345.517,247.332,341.201,244.667,336.891,245.682z"/>
<path d="M238.225,348.033c-32.613-7.703-56.021-35.162-58.911-68.045l0.869,1.766c1.395,2.834,4.239,4.478,7.198,4.477
	c1.189,0,2.396-0.266,3.535-0.826c3.972-1.956,5.606-6.761,3.651-10.734l-13.625-27.673c-1.221-2.48-3.633-4.156-6.383-4.435
	c-2.75-0.276-5.45,0.879-7.143,3.063l-18.903,24.374c-2.714,3.498-2.077,8.534,1.422,11.247c3.498,2.714,8.534,2.078,11.247-1.422
	l1.899-2.449c0.91,19.576,8.029,38.555,20.291,53.857c12.951,16.161,31.122,27.668,51.168,32.403
	c0.62,0.146,1.239,0.216,1.849,0.216c3.632,0,6.924-2.486,7.795-6.175C245.202,353.369,242.534,349.051,238.225,348.033z"/>
<path d="M299.87,210.344c-4.255-1.225-8.697,1.232-9.92,5.488c-1.225,4.254,1.232,8.697,5.488,9.92l29.641,8.529
	c0.73,0.211,1.475,0.312,2.216,0.312c1.953,0,3.868-0.714,5.358-2.053c2.055-1.847,3.015-4.624,2.539-7.346l-5.322-30.382
	c-0.763-4.361-4.915-7.276-9.28-6.514c-4.361,0.764-7.277,4.919-6.514,9.28l0.575,3.28c-16.404-13.376-36.931-20.782-58.652-20.782
	c-28.827,0-55.555,13.04-73.328,35.777c-2.727,3.489-2.11,8.527,1.379,11.253c1.467,1.146,3.206,1.702,4.932,1.702
	c2.383,0,4.741-1.057,6.321-3.079c14.714-18.822,36.837-29.618,60.696-29.618c16.52,0,32.205,5.179,45.177,14.61L299.87,210.344z"/>
<path d="M379.583,68.884c-4.442-4.715-16.037-17.621-22.351-30.247c-1.357-2.716-4.133-4.432-7.17-4.432H241.325L192.038,1.347
	c-3.683-2.455-8.662-1.461-11.116,2.223c-2.456,3.683-1.461,8.661,2.223,11.116l29.277,19.518h-50.485
	c-3.037,0-5.813,1.716-7.17,4.432c-6.293,12.585-17.907,25.523-22.354,30.249c-7.271,1.75-12.697,8.291-12.697,16.092v376.25
	c0,7.802,5.428,14.345,12.701,16.093c4.442,4.715,16.037,17.621,22.351,30.247c1.357,2.716,4.133,4.432,7.17,4.432h188.125
	c3.037,0,5.813-1.716,7.17-4.432c6.293-12.586,17.907-25.524,22.354-30.249c7.272-1.75,12.697-8.291,12.697-16.092V84.977
	C392.283,77.174,386.857,70.632,379.583,68.884z M136.284,461.761c-0.295,0-0.534-0.239-0.534-0.534V84.977
	c0-0.295,0.239-0.534,0.534-0.534h239.432c0.295,0,0.534,0.239,0.534,0.534v376.25c0,0.295-0.239,0.534-0.534,0.534H136.284z
	 M166.726,50.238h178.548c3.775,6.587,8.407,12.913,12.643,18.171H154.084C158.319,63.152,162.952,56.825,166.726,50.238z
	 M345.273,495.966H166.726c-3.775-6.587-8.407-12.913-12.643-18.171h203.832C353.681,483.053,349.049,489.379,345.273,495.966z"/>
</svg>