<?xml version="1.0" encoding="iso-8859-1"?>
<!-- Uploaded to: SVG Repo, www.svgrepo.com, Generator: SVG Repo Mixer Tools -->
<svg height="800px" width="800px" version="1.1" id="Layer_1" xmlns="http://www.w3.org/2000/svg" xmlns:xlink="http://www.w3.org/1999/xlink" 
	 viewBox="0 0 511.98 511.98" xml:space="preserve">
<path style="fill:#434A54;" d="M144.342,8.936L90.735,478.762c-0.672,5.859,3.531,11.141,9.39,11.812
	c0.406,0.047,0.812,0.062,1.219,0.062c5.359,0,9.969-4.016,10.594-9.453L165.7,9.874c0.031-0.312,0.047-0.625,0.062-0.938H144.342z"
	/>
<path style="fill:#F6BB42;" d="M96.688,426.639h255.99L400.223,9.874c0.047-0.312-234.476-0.625-234.46-0.938h-21.421
	L96.688,426.639z"/>
<g>
	<path style="fill:#656D78;" d="M410.661,511.98c-5.891,0-10.672-4.781-10.672-10.672v-66.217c0-5.891,4.781-10.671,10.672-10.671
		c5.89,0,10.655,4.78,10.655,10.671v66.217C421.316,507.199,416.551,511.98,410.661,511.98z"/>
	<path style="fill:#656D78;" d="M154.67,511.98c-5.891,0-10.671-4.781-10.671-10.672v-66.217c0-5.891,4.781-10.671,10.671-10.671
		s10.656,4.78,10.656,10.671v66.217C165.325,507.199,160.56,511.98,154.67,511.98z"/>
</g>
<path style="fill:#FFCE54;" d="M410.661,0H154.67c-5.891,0-10.671,4.765-10.671,10.655V437.31c0,5.891,4.781,10.672,10.671,10.672
	h255.991c5.89,0,10.655-4.781,10.655-10.672V10.655C421.316,4.764,416.551,0,410.661,0z M325.319,95.996h-85.325
	c-11.781,0-21.327-9.562-21.327-21.343s9.546-21.327,21.327-21.327h85.325c11.781,0,21.343,9.546,21.343,21.327
	S337.1,95.996,325.319,95.996z"/>
<g style="opacity:0.2;">
	<path style="fill:#FFFFFF;" d="M410.661,0h-10.672c5.891,0,10.672,4.765,10.672,10.655V437.31c0,5.891-4.781,10.672-10.672,10.672
		h10.672c5.89,0,10.655-4.781,10.655-10.672V10.655C421.316,4.764,416.551,0,410.661,0z"/>
</g>
<path style="fill:#ED5564;" d="M377.505,347.142L292.399,155.65c-1.703-3.844-5.531-6.328-9.734-6.328
	c-4.218,0-8.046,2.484-9.749,6.328l-85.341,191.992c-1.453,3.297-1.156,7.125,0.812,10.156c1.969,3.015,5.328,4.843,8.938,4.843
	H367.99l0,0c5.906,0,10.672-4.765,10.672-10.655C378.661,350.236,378.255,348.595,377.505,347.142z"/>
<g>
	<path style="fill:#434A54;" d="M290.196,312.44c4.172,4.156,4.172,10.921,0,15.077c-4.156,4.172-10.905,4.172-15.077,0
		c-4.172-4.156-4.172-10.921,0-15.077C279.291,308.269,286.04,308.269,290.196,312.44z"/>
	<path style="fill:#434A54;" d="M282.665,298.644c-5.89,0-10.671-4.765-10.671-10.655v-42.671c0-5.891,4.781-10.672,10.671-10.672
		c5.891,0,10.656,4.781,10.656,10.672v42.671C293.321,293.88,288.555,298.644,282.665,298.644z"/>
</g>
</svg>