<?xml version="1.0" encoding="utf-8"?>
<!-- Uploaded to: SVG Repo, www.svgrepo.com, Generator: SVG Repo Mixer Tools -->
<svg fill="#000000" height="800px" width="800px" version="1.2" baseProfile="tiny" id="Layer_1" xmlns="http://www.w3.org/2000/svg" xmlns:xlink="http://www.w3.org/1999/xlink"
	  viewBox="0 0 256 256" xml:space="preserve">
<path d="M224.9,76.2c-0.3-0.7-1.9-1.5-4.9-1.5c-0.9,0-2,0.1-3.2,0.2c-5.1,0.6-11.6,2.6-18,5.5c-6.4,2.9-12.1,6.5-16,9.9
	c-4,3.5-4.8,5.9-4.4,7c0.4,1,2.8,2,8.1,1.3c5.1-0.6,11.6-2.6,18-5.5c6.5-2.9,12.1-6.5,16-9.9C224.4,79.7,225.3,77.3,224.9,76.2
	L224.9,76.2z M111.5,89.9c-3.5-0.2-7-0.3-10.5-0.3c0,2.3,0,4.8-0.2,7.4c4.7,0,9.1,0.2,13.2,0.5C113.5,94.8,112.6,92.3,111.5,89.9z
	 M84,120c3.8,0.2,7.5,0.4,11.3,0.4L84,120z M109.7,82.5c2.7,4,5.4,8.8,6.4,14.1c0.1,0.7,0.2,1.4,0.3,2.1c0.5,6.1-1.5,12.7-8.1,19.6
	c6.5-0.2,12.3-0.7,17.5-1.4c2.6-4.9,4.3-10.4,4.2-16.8c0-0.7,0-1.4-0.1-2.1c-0.5-6.9-3.1-14.6-9-23.2c-0.2-0.3-0.4-0.5-0.5-0.7
	c-0.1-0.1-8.9-14.5-1.4-20.7c2.1-1.8,6.3-3.9,10.9,1.1c2.4,2.8,6.7,3,9.4,0.6c2.8-2.4,3.1-6.7,0.7-9.5c-5.5-6.4-17.8-12.3-29.5-2.6
	c-13.4,11.1-6.8,29.9-1.4,38.3C109.1,81.7,109.4,82,109.7,82.5z M133.8,46.9c1,0,1.9,0.8,1.9,1.9s-0.8,1.9-1.9,1.9s-1.9-0.8-1.9-1.9
	S132.8,46.9,133.8,46.9z M40.4,72.2c1.3,0,2.9,0.3,4.9,2.3c4.7,4.8,7.5,15.6,9,26.8c0.1,0.7,0.2,1.4,0.2,2.1
	c0.4,3.4,0.7,6.8,0.8,10.1c3.5,1.1,8.1,2.1,13.6,2.9c-0.2-4.6-0.5-10.2-1.3-16.1c-0.1-0.7-0.2-1.4-0.3-2.1
	C65.6,85.8,62,72.6,54.8,65.2c-4.1-4.2-9.1-6.5-14.6-6.5c-14.5,0-14.9,14.4-15.1,23c-0.1,4.5-0.2,9.2-1.5,12.8
	c-2.4,7.3-11.8,12.6-15.2,14c-3.4,1.5-5.1,5.3-3.7,8.8c1.4,3.4,5.3,5.1,8.8,3.7c1.9-0.7,18.1-7.7,22.9-22.2c1.9-5.5,2-11.5,2.1-16.7
	c0.1-3.1,0.2-8.4,1-9.8C39.9,72.2,40.1,72.2,40.4,72.2z M12.4,116.3c-1,0-1.9-0.8-1.9-1.9c0-1,0.8-1.9,1.9-1.9s1.9,0.8,1.9,1.9
	C14.3,115.5,13.5,116.3,12.4,116.3z M250.2,64.8L250.2,64.8c-5.2-11.5-32.5-6.4-56.7,4.6c-12.4,5.6-23.5,12.5-31.1,19.3
	c-4.7,4.2-7.5,7.8-9,10.9c-5.1-3.3-13.2-5.7-22.5-7.4c0.5,2.1,0.8,4.2,0.9,6.4c12.3,2.1,21.1,5.3,21.1,9.8
	c0,7.9-27.8,12.2-53.9,12.2c-1.3,0-2.6,0-4,0c-3.8-0.1-7.6-0.2-11.3-0.4c-20.7-1.4-38.6-5.3-38.6-11.8c0-2.4,2.5-4.5,6.8-6.2
	c-0.2-1.9-0.5-3.8-0.8-5.6c-7.4,2.9-12,6.9-12,11.8v118.2c0,12.8,31.2,18.7,60.1,18.7s60.1-5.8,60.1-18.7V114.3
	c2.4,0.7,5.2,1.1,8.4,1.1c11.3,0,26.9-4.5,41.5-11.1C233.7,93.4,255.4,76.2,250.2,64.8z M100.3,195.9H100c-0.1,0-0.3,0-0.4,0
	c0,0,0,0-0.1,0l0,0c0,0,0,0-0.1,0c-0.1,0-0.3,0-0.4,0h-0.1l0,0C80,195.8,56,191.1,50.2,186l0.2-33.5c10.2,6.7,30.1,9.8,49,9.8h0.4
	c18.9,0,38.7-3.1,49-9.8L149,186C142.9,191,119.1,195.6,100.3,195.9z M222.5,85.5c-4.1,3.7-10,7.3-16.8,10.4
	c-6.7,3-13.5,5.1-18.9,5.7c-1.3,0.2-2.5,0.2-3.5,0.2c-4.1,0-6.7-1.1-7.6-3.2c-1.3-2.7,0.5-6.4,5.1-10.4c4.1-3.7,10-7.3,16.8-10.4
	c6.7-3,13.4-5.1,18.9-5.7c6.1-0.7,10,0.3,11.2,3C228.8,77.8,227,81.4,222.5,85.5z M69.9,99.3c4.2-0.7,8.9-1.3,14.1-1.7
	c0.2-2.8,0.3-5.3,0.3-7.5c-5.4,0.4-10.6,0.9-15.6,1.8C69.1,94.4,69.5,96.8,69.9,99.3z M53.5,23.8c1.5-1.7,4.5-4.2,6.7-4
	c1.5,0.1,2.8,1.8,3.8,3.1c2.8,4.4,1.9,10,0.7,16.7C63.2,48,61.4,58.3,68,67.9c4.1,5.9,9.1,7.6,12.6,8.9c3.5,1.1,4.5,1.5,5.3,4.8
	c0.8,3.2,1,8.1,0.6,14.9c0,0.6-0.1,1.4-0.1,2.1c-0.4,5.4-1.3,11.9-2.4,19.5c3.7,0.2,7.5,0.4,11.6,0.4c1.1-7.9,2-14.6,2.4-20.2
	c0-0.7,0.1-1.4,0.1-2.1c0.4-7.6,0-13.4-1-17.5c-2.5-9.3-8.5-11.3-12.7-12.7c-2.9-0.9-5-1.7-6.9-4.5c-4-5.7-2.8-12.2-1.6-19.7
	c1.4-7.8,2.9-16.7-2.4-24.9c-4.3-6.5-9.3-8-12.7-8.2c-8.7-0.5-15.4,7.2-16.2,8.1c-2,2.4-1.7,6.1,0.7,8
	C47.8,26.6,51.4,26.2,53.5,23.8z M50.1,15.9c1,0,1.9,0.8,1.9,1.9c0,1-0.8,1.9-1.9,1.9s-1.9-0.8-1.9-1.9
	C48.2,16.7,49.1,15.9,50.1,15.9z"/>
</svg>