<?xml version="1.0" encoding="iso-8859-1"?>
<!-- Uploaded to: SVG Repo, www.svgrepo.com, Generator: SVG Repo Mixer Tools -->
<svg version="1.1" id="Layer_1" xmlns="http://www.w3.org/2000/svg" xmlns:xlink="http://www.w3.org/1999/xlink" 
	 viewBox="0 0 512 512" xml:space="preserve">
<rect x="35.815" y="27.965" transform="matrix(-0.9914 0.1305 -0.1305 -0.9914 421.3206 421.9308)" style="fill:#FFD178;" width="322.04" height="393.611"/>
<rect x="74.271" y="71.385" transform="matrix(0.9914 -0.1305 0.1305 0.9914 -23.0618 26.7012)" style="fill:#FE623F;" width="235.84" height="235.84"/>
<rect x="154.122" y="90.403" transform="matrix(-0.9914 -0.1305 0.1305 -0.9914 590.1073 613.0883)" style="fill:#FFECD4;" width="322.04" height="393.611"/>
<polygon style="fill:#5ED6B4;" points="188.278,354.445 218.884,117.904 451.361,149.046 420.755,385.587 "/>
<path d="M449.112,512c-0.374,0-0.75-0.024-1.125-0.074L128.68,469.889c-2.268-0.299-4.325-1.486-5.717-3.301
	c-1.393-1.815-2.007-4.11-1.709-6.378l51.379-390.263c0.299-2.268,1.486-4.325,3.301-5.717c1.815-1.393,4.106-2.007,6.378-1.709
	l319.305,42.037c4.724,0.622,8.049,4.955,7.427,9.679L457.664,504.5c-0.299,2.268-1.486,4.325-3.301,5.717
	C452.849,511.38,451.001,512,449.112,512z M139.485,453.91l302.202,39.786l49.127-373.159L188.612,80.753L139.485,453.91z
	 M62.878,449.553c-4.264,0-7.971-3.161-8.542-7.501L2.956,51.789c-0.298-2.268,0.316-4.563,1.709-6.378s3.449-3.003,5.717-3.301
	L329.69,0.074c2.272-0.298,4.563,0.316,6.376,1.709c1.815,1.393,3.002,3.449,3.301,5.717l6.343,48.18
	c0.622,4.723-2.703,9.056-7.427,9.677c-4.723,0.622-9.055-2.703-9.677-7.427l-5.217-39.628L21.189,58.09l49.127,373.157
	l26.863-3.537c4.72-0.619,9.056,2.704,9.679,7.427c0.622,4.724-2.704,9.056-7.427,9.679l-35.416,4.663
	C63.633,449.528,63.253,449.553,62.878,449.553z M418.856,389.426c-0.376,0-0.754-0.024-1.136-0.075l-228.08-30.027
	c-4.723-0.622-8.049-4.955-7.427-9.679l30.027-228.08c0.299-2.268,1.486-4.325,3.301-5.717c1.815-1.393,4.107-2.008,6.378-1.709
	l228.08,30.027c2.269,0.299,4.326,1.487,5.719,3.301c1.393,1.815,2.007,4.11,1.708,6.378l-30.027,228.08
	C426.825,386.266,423.12,389.426,418.856,389.426z M200.444,343.345l210.975,27.775l27.775-210.975l-210.975-27.775L200.444,343.345
	z M93.154,326.977c-1.889,0-3.737-0.62-5.252-1.783c-1.815-1.393-3.002-3.449-3.301-5.717L54.574,91.397
	c-0.298-2.268,0.316-4.563,1.709-6.378c1.393-1.815,3.449-3.003,5.717-3.301l82.151-10.815c4.718-0.622,9.056,2.703,9.679,7.427
	c0.621,4.724-2.704,9.056-7.427,9.679l-73.599,9.689l27.775,210.975l12.485-1.644c4.725-0.619,9.057,2.704,9.679,7.427
	c0.622,4.724-2.704,9.056-7.427,9.679l-21.038,2.77C93.905,326.953,93.528,326.977,93.154,326.977z"/>
</svg>